<svg width="132" height="16" viewBox="0 0 132 16" fill="none" xmlns="http://www.w3.org/2000/svg">
<path fill-rule="evenodd" clip-rule="evenodd" d="M36.6293 9.17585H32.6014C32.6014 7.35645 33.3619 6.37 34.6531 6.37C35.8688 6.37 36.6293 7.50783 36.6293 9.17585ZM38.9083 10.8453V10.3904C38.9083 8.03873 38.4525 6.75022 37.6164 5.83982C36.9327 5.0815 35.8688 4.70269 34.6524 4.70269C33.285 4.70269 32.2211 5.15754 31.385 6.14328C30.5489 7.12903 30.0931 8.41894 30.0931 10.2383C30.0931 13.7272 31.9163 15.8507 34.9565 15.8507C36.4 15.8507 37.6919 15.3198 38.7559 14.4094L37.9198 13.0449C37.0837 13.7272 36.2476 14.1067 35.2599 14.1067C34.2721 14.1067 33.5122 13.7272 32.9802 12.9695C32.6762 12.5147 32.5245 11.755 32.5245 10.9974V10.846L38.9083 10.8453ZM68.6973 10.5411L68.6218 13.0442C68.166 13.8018 67.4062 14.2574 66.5701 14.2574C65.5823 14.2574 65.0503 13.6511 65.0503 12.5893C65.0503 11.9831 65.202 11.5275 65.5823 11.148C66.0381 10.6932 66.7987 10.5418 68.166 10.5418L68.6973 10.5411ZM71.7375 14.5608C70.9784 14.106 70.8253 13.6504 70.8253 12.4372V8.26615C70.8253 7.2797 70.8253 6.90019 70.6736 6.44534C70.2933 5.30752 69.0776 4.70129 67.4824 4.70129C66.5701 4.70129 65.5823 4.85267 64.6707 5.30752C64.0626 5.61099 63.5306 5.76237 62.9986 6.14188L63.9864 7.73455C64.4421 7.43109 64.7462 7.2797 65.2782 6.97623C65.9619 6.67277 66.6456 6.52139 67.1776 6.52139C67.785 6.52139 68.1653 6.67277 68.3946 6.97623C68.6218 7.2797 68.698 7.65922 68.698 8.41753V9.02377H68.0143C64.5183 9.02377 62.6945 10.2369 62.6945 12.7393C62.6945 13.4983 62.9224 14.4848 63.5306 15.015C64.1388 15.5459 64.8979 15.8486 66.1905 15.8486C67.1021 15.8486 67.7857 15.6219 68.4701 15.2424C68.6973 15.0157 68.7735 14.8629 69.0776 14.5601C69.3048 15.2424 69.9144 15.7733 70.5974 16L71.7375 14.5608ZM122.196 9.17585H118.244C118.244 7.35645 119.004 6.37 120.22 6.37C121.513 6.37 122.196 7.50783 122.196 9.17585ZM124.552 10.8453V10.3904C124.552 8.03873 124.096 6.75022 123.26 5.83982C122.5 5.0815 121.437 4.70269 120.22 4.70269C118.929 4.70269 117.865 5.15754 117.029 6.14328C116.192 7.12903 115.736 8.41894 115.736 10.2383C115.736 13.7272 117.561 15.8507 120.601 15.8507C121.969 15.8507 123.261 15.3198 124.401 14.4094L123.488 13.0449C122.729 13.7272 121.817 14.1067 120.905 14.1067C119.841 14.1067 119.081 13.7272 118.626 12.9695C118.321 12.5147 118.17 11.6796 118.17 10.9974V10.846L124.552 10.8453ZM28.27 15.5473V1.06179H25.9897V6.97694H20.7467V1.06179H18.5426V15.5473H20.7467V8.79775H25.9897V15.5473H28.27ZM46.3561 4.85337C46.1282 4.77733 45.9003 4.70199 45.52 4.70199C44.3798 4.70199 43.5437 5.30822 42.8601 6.37V6.14258C42.8601 5.53635 42.7077 5.15684 42.4798 4.70199L40.3518 5.23288C40.6559 5.91516 40.7321 6.67347 40.7321 7.96268V15.5466H43.0118V8.49358C43.088 7.88735 43.2397 7.65922 43.6199 7.28041C44.0002 6.9009 44.5315 6.82556 44.988 6.82556C45.2921 6.82556 45.3676 6.9009 45.6717 6.97694L46.3561 4.85337ZM60.7944 15.5473V7.73526C60.7944 6.59743 60.5666 5.91516 59.9584 5.38427C59.5026 4.92942 58.8182 4.70199 58.0583 4.70199C56.9189 4.70199 55.627 5.30822 54.7909 6.29467C54.5691 5.81785 54.2151 5.41443 53.7707 5.13216C53.3263 4.8499 52.8102 4.70062 52.2834 4.70199C51.2956 4.70199 50.2317 5.30822 49.4718 6.06654C49.3963 5.53564 49.2439 5.0808 49.0922 4.77733L47.0404 5.30822C47.3445 5.9905 47.42 6.37001 47.42 7.88735V15.5473H49.548V7.73526C50.4603 6.97694 51.1439 6.59743 51.8276 6.59743C52.7392 6.59743 52.9678 7.12832 52.9678 8.34219V15.5466H55.1719V7.88735C56.008 6.97694 56.8441 6.59743 57.4516 6.59743C58.2876 6.59743 58.591 7.05228 58.591 8.11407V15.5473H60.7944ZM81.6921 15.5473V7.65992C81.6921 5.76377 80.5527 4.77803 78.8812 4.77803C77.7418 4.77803 76.8295 5.15754 75.69 6.14258C75.69 5.68773 75.5369 5.23288 75.3097 4.70199L73.258 5.30822C73.5628 5.9905 73.5628 6.59743 73.5628 7.73526V15.5473H75.7662V7.88735C76.5254 7.12833 77.5139 6.59743 78.2745 6.59743C79.1098 6.59743 79.4901 7.05228 79.4901 8.49358V15.5473H81.6921ZM98.8666 15.5473L97.651 1.06179H94.5353L91.723 11.8296L88.8358 1.06179H85.6446L84.2759 15.5473H86.4038L87.3916 3.41278L90.659 15.5473H92.408L95.7509 3.6402L96.6632 15.5473H98.8666ZM103.502 15.5473V4.70199L101.223 5.0815V15.5473H103.502ZM103.882 1.8201C103.882 1.06178 103.197 0.303468 102.363 0.303468C101.602 0.303468 100.843 1.06178 100.843 1.8201C100.843 2.7298 101.527 3.33744 102.363 3.33744C103.198 3.33674 103.882 2.7298 103.882 1.8201ZM109.81 15.5473L109.354 14.182H109.127C108.746 14.182 108.443 13.9553 108.443 13.1202V3.18536C108.443 1.8201 108.443 0.910406 108.29 0.151385L106.011 0.682276C106.163 1.44059 106.238 2.19891 106.238 3.71554V13.2709C106.238 14.8636 107.075 15.774 108.366 15.774C108.974 15.774 109.353 15.6986 109.81 15.5473ZM114.977 15.5473L114.521 14.182C114.218 14.182 113.989 14.182 113.838 14.0306C113.686 13.8025 113.609 13.3469 113.609 12.2852V3.18536C113.609 1.8201 113.609 0.910406 113.382 0.151385L111.103 0.682276C111.33 1.44059 111.33 2.19891 111.33 3.71554V12.8914C111.33 14.0299 111.557 14.6369 111.862 15.0164C112.167 15.5473 112.85 15.774 113.534 15.774C114.065 15.774 114.521 15.6986 114.977 15.5473ZM132 4.85337C131.771 4.77733 131.544 4.70199 131.163 4.70199C130.024 4.70199 129.111 5.30822 128.428 6.37V6.14258C128.428 5.53635 128.276 5.15684 128.048 4.70199L125.996 5.23288C126.301 5.91516 126.376 6.67347 126.376 7.96268V15.5466H128.579V8.49358C128.731 7.88735 128.884 7.65922 129.263 7.28041C129.643 6.9009 130.175 6.82556 130.631 6.82556C130.86 6.82556 131.012 6.9009 131.315 6.97694L132 4.85337ZM12.3873 12.1338C12.3873 12.1338 10.5642 11.5275 7.97977 11.5275C5.31985 11.5275 3.496 12.1338 3.496 12.1338V3.86763H3.64769C3.64769 3.86763 4.33208 11.148 7.97977 11.148C11.5513 11.148 12.2349 3.86763 12.2349 3.86763H12.3866V12.1338H12.3873ZM15.8826 7.96268C15.8826 3.56346 12.3111 0 7.97977 0C3.5722 0 0 3.56416 0 7.96268C0 12.3619 3.5715 15.9254 7.97977 15.9254C12.3111 15.9254 15.8826 12.3619 15.8826 7.96268Z" fill="#CE3B29"/>
</svg>
